<?xml version="1.0" encoding="UTF-8"?>
<svg xmlns="http://www.w3.org/2000/svg" xmlns:xlink="http://www.w3.org/1999/xlink" width="3333px" height="3333px" viewBox="0 0 3333 3333" version="1.1">
<g id="surface1">
<path style=" stroke:none;fill-rule:evenodd;fill:rgb(99.607843%,100%,99.607843%);fill-opacity:1;" d="M 1645.5 137.5 C 1943.851562 135.335938 2222.851562 207.167969 2482.5 353 C 2628.859375 436.710938 2758.03125 542.210938 2870 669.5 C 3124.660156 968.238281 3228.660156 1313.570312 3182 1705.5 C 3146.511719 1945.378906 3053.179688 2159.050781 2902 2346.5 C 2766.621094 2511.261719 2604.121094 2641.761719 2414.5 2738 C 2140.140625 2875.070312 1849.808594 2933.070312 1543.5 2912 C 1502 2908.761719 1460.671875 2904.429688 1419.5 2899 C 1355.558594 2974.648438 1282.21875 3038.980469 1199.5 3092 C 1136.039062 3132.21875 1067.699219 3161.21875 994.5 3179 C 947.808594 3190.261719 900.476562 3194.929688 852.5 3193 C 753.882812 3183.980469 680.050781 3136.808594 631 3051.5 C 586.46875 2964.679688 583.136719 2876.339844 621 2786.5 C 631.410156 2765.328125 643.574219 2745.328125 657.5 2726.5 C 686.421875 2671.089844 683.589844 2617.429688 649 2565.5 C 527.988281 2466.199219 425.324219 2351.199219 341 2220.5 C 175.101562 1955.53125 111.101562 1667.53125 149 1356.5 C 178.703125 1140.949219 256.703125 945.28125 383 769.5 C 506.222656 601.078125 657.722656 464.578125 837.5 360 C 1087.601562 216.585938 1356.941406 142.417969 1645.5 137.5 Z M 1645.5 137.5 "/>
</g>
</svg>
