<?xml version="1.0" encoding="UTF-8"?>
<!DOCTYPE svg PUBLIC "-//W3C//DTD SVG 1.1//EN" "http://www.w3.org/Graphics/SVG/1.1/DTD/svg11.dtd">
<svg xmlns="http://www.w3.org/2000/svg" version="1.1" width="3333px" height="3333px" style="shape-rendering:geometricPrecision; text-rendering:geometricPrecision; image-rendering:optimizeQuality; fill-rule:evenodd; clip-rule:evenodd" xmlns:xlink="http://www.w3.org/1999/xlink">
<g><path style="opacity:0.999" fill="#fefffe" d="M 1645.5,137.5 C 1943.85,135.335 2222.85,207.168 2482.5,353C 2628.86,436.711 2758.03,542.211 2870,669.5C 3124.66,968.238 3228.66,1313.57 3182,1705.5C 3146.51,1945.38 3053.18,2159.05 2902,2346.5C 2766.62,2511.26 2604.12,2641.76 2414.5,2738C 2140.14,2875.07 1849.81,2933.07 1543.5,2912C 1502,2908.76 1460.67,2904.43 1419.5,2899C 1355.56,2974.65 1282.22,3038.98 1199.5,3092C 1136.04,3132.22 1067.7,3161.22 994.5,3179C 947.809,3190.26 900.476,3194.93 852.5,3193C 753.883,3183.98 680.05,3136.81 631,3051.5C 586.468,2964.68 583.135,2876.34 621,2786.5C 631.409,2765.33 643.575,2745.33 657.5,2726.5C 686.422,2671.09 683.588,2617.43 649,2565.5C 527.99,2466.2 425.323,2351.2 341,2220.5C 175.102,1955.53 111.102,1667.53 149,1356.5C 178.705,1140.95 256.705,945.281 383,769.5C 506.221,601.077 657.721,464.577 837.5,360C 1087.6,216.585 1356.94,142.418 1645.5,137.5 Z"/></g>
</svg>
